<mxfile host="Electron" modified="2024-10-04T00:30:37.480Z" agent="Mozilla/5.0 (X11; Linux x86_64) AppleWebKit/537.36 (KHTML, like Gecko) draw.io/21.6.5 Chrome/114.0.5735.243 Electron/25.3.1 Safari/537.36" etag="2wFTYVUGv6UUC7GTKuqe" version="21.6.5" type="device">
  <diagram name="Page-1" id="XQpnbHps4Ra_ysarjgnG">
    <mxGraphModel dx="1364" dy="4843" grid="1" gridSize="10" guides="1" tooltips="1" connect="1" arrows="1" fold="1" page="1" pageScale="1" pageWidth="1060" pageHeight="2000" math="0" shadow="0">
      <root>
        <mxCell id="0" />
        <mxCell id="1" parent="0" />
        <mxCell id="uSqVCuNqCW10vcJo9bsy-27" value="" style="rounded=1;whiteSpace=wrap;html=1;arcSize=8;textOpacity=50;opacity=50;" parent="1" vertex="1">
          <mxGeometry x="40" y="-2020" width="400" height="310" as="geometry" />
        </mxCell>
        <mxCell id="uSqVCuNqCW10vcJo9bsy-49" value="" style="rounded=1;whiteSpace=wrap;html=1;arcSize=14;dashed=1;fillColor=none;" parent="1" vertex="1">
          <mxGeometry x="55" y="-1890" width="365" height="160" as="geometry" />
        </mxCell>
        <mxCell id="uSqVCuNqCW10vcJo9bsy-10" value="" style="rounded=1;whiteSpace=wrap;html=1;fillColor=#ffe6cc;strokeColor=#d79b00;" parent="1" vertex="1">
          <mxGeometry x="100" y="-1695" width="20" height="20" as="geometry" />
        </mxCell>
        <mxCell id="uSqVCuNqCW10vcJo9bsy-11" value="" style="rounded=1;whiteSpace=wrap;html=1;fillColor=#d5e8d4;strokeColor=#82b366;" parent="1" vertex="1">
          <mxGeometry x="270" y="-1695" width="20" height="20" as="geometry" />
        </mxCell>
        <mxCell id="uSqVCuNqCW10vcJo9bsy-12" value="User Assets" style="text;html=1;strokeColor=none;fillColor=none;align=left;verticalAlign=middle;whiteSpace=wrap;rounded=0;" parent="1" vertex="1">
          <mxGeometry x="130" y="-1700" width="80" height="30" as="geometry" />
        </mxCell>
        <mxCell id="uSqVCuNqCW10vcJo9bsy-13" value="Admin Fees" style="text;html=1;strokeColor=none;fillColor=none;align=left;verticalAlign=middle;whiteSpace=wrap;rounded=0;" parent="1" vertex="1">
          <mxGeometry x="300" y="-1700" width="100" height="30" as="geometry" />
        </mxCell>
        <mxCell id="uSqVCuNqCW10vcJo9bsy-28" value="" style="rounded=0;whiteSpace=wrap;html=1;fillColor=#d5e8d4;strokeColor=#82b366;" parent="1" vertex="1">
          <mxGeometry x="370" y="-1960" width="30" height="40" as="geometry" />
        </mxCell>
        <mxCell id="uSqVCuNqCW10vcJo9bsy-29" value="LP Tokens" style="text;html=1;strokeColor=none;fillColor=none;align=right;verticalAlign=middle;whiteSpace=wrap;rounded=0;" parent="1" vertex="1">
          <mxGeometry x="60" y="-1960" width="50" height="40" as="geometry" />
        </mxCell>
        <mxCell id="uSqVCuNqCW10vcJo9bsy-30" value="" style="rounded=0;whiteSpace=wrap;html=1;fillColor=#ffe6cc;strokeColor=#d79b00;" parent="1" vertex="1">
          <mxGeometry x="120" y="-1960" width="250" height="40" as="geometry" />
        </mxCell>
        <mxCell id="uSqVCuNqCW10vcJo9bsy-31" value="USDC / WETH Cryptoswap Pool" style="text;html=1;strokeColor=none;fillColor=none;align=center;verticalAlign=middle;whiteSpace=wrap;rounded=0;fontSize=14;fontStyle=1" parent="1" vertex="1">
          <mxGeometry x="40" y="-2020" width="400" height="50" as="geometry" />
        </mxCell>
        <mxCell id="uSqVCuNqCW10vcJo9bsy-32" value="" style="rounded=0;whiteSpace=wrap;html=1;fillColor=#d5e8d4;strokeColor=#82b366;" parent="1" vertex="1">
          <mxGeometry x="370" y="-1850" width="30" height="40" as="geometry" />
        </mxCell>
        <mxCell id="uSqVCuNqCW10vcJo9bsy-33" value="USDC" style="text;html=1;strokeColor=none;fillColor=none;align=right;verticalAlign=middle;whiteSpace=wrap;rounded=0;" parent="1" vertex="1">
          <mxGeometry x="60" y="-1850" width="50" height="40" as="geometry" />
        </mxCell>
        <mxCell id="uSqVCuNqCW10vcJo9bsy-34" value="" style="rounded=0;whiteSpace=wrap;html=1;fillColor=#ffe6cc;strokeColor=#d79b00;" parent="1" vertex="1">
          <mxGeometry x="120" y="-1850" width="250" height="40" as="geometry" />
        </mxCell>
        <mxCell id="uSqVCuNqCW10vcJo9bsy-35" value="" style="rounded=0;whiteSpace=wrap;html=1;fillColor=#d5e8d4;strokeColor=#82b366;" parent="1" vertex="1">
          <mxGeometry x="370" y="-1790" width="30" height="40" as="geometry" />
        </mxCell>
        <mxCell id="uSqVCuNqCW10vcJo9bsy-36" value="" style="rounded=0;whiteSpace=wrap;html=1;fillColor=#ffe6cc;strokeColor=#d79b00;" parent="1" vertex="1">
          <mxGeometry x="120" y="-1790" width="250" height="40" as="geometry" />
        </mxCell>
        <mxCell id="uSqVCuNqCW10vcJo9bsy-37" value="WETH" style="text;html=1;strokeColor=none;fillColor=none;align=right;verticalAlign=middle;whiteSpace=wrap;rounded=0;" parent="1" vertex="1">
          <mxGeometry x="60" y="-1790" width="50" height="40" as="geometry" />
        </mxCell>
        <mxCell id="uSqVCuNqCW10vcJo9bsy-51" value="Pool assets" style="text;html=1;strokeColor=none;fillColor=none;align=center;verticalAlign=middle;whiteSpace=wrap;rounded=0;fontStyle=1;fontSize=12;" parent="1" vertex="1">
          <mxGeometry x="52.5" y="-1890" width="370" height="40" as="geometry" />
        </mxCell>
      </root>
    </mxGraphModel>
  </diagram>
</mxfile>
